<?xml version="1.0" encoding="UTF-8" standalone="no"?>
<svg
   xmlns:dc="http://purl.org/dc/elements/1.1/"
   xmlns:cc="http://creativecommons.org/ns#"
   xmlns:rdf="http://www.w3.org/1999/02/22-rdf-syntax-ns#"
   xmlns:svg="http://www.w3.org/2000/svg"
   xmlns="http://www.w3.org/2000/svg"
   xmlns:sodipodi="http://sodipodi.sourceforge.net/DTD/sodipodi-0.dtd"
   xmlns:inkscape="http://www.inkscape.org/namespaces/inkscape"
   width="109.8079mm"
   height="109.79832mm"
   viewBox="0 0 109.8079 109.79832"
   version="1.1"
   id="svg909"
   inkscape:version="1.0.2 (e86c8708, 2021-01-15)"
   sodipodi:docname="davinci.svg">
  <defs
     id="defs903" />
  <sodipodi:namedview
     id="base"
     pagecolor="#ffffff"
     bordercolor="#666666"
     borderopacity="1.0"
     inkscape:pageopacity="0.0"
     inkscape:pageshadow="2"
     inkscape:zoom="0.35"
     inkscape:cx="-592.50175"
     inkscape:cy="-6.9293984"
     inkscape:document-units="mm"
     inkscape:current-layer="layer1"
     inkscape:document-rotation="0"
     showgrid="false"
     inkscape:window-width="2560"
     inkscape:window-height="1313"
     inkscape:window-x="0"
     inkscape:window-y="25"
     inkscape:window-maximized="0" />
  <metadata
     id="metadata906">
    <rdf:RDF>
      <cc:Work
         rdf:about="">
        <dc:format>image/svg+xml</dc:format>
        <dc:type
           rdf:resource="http://purl.org/dc/dcmitype/StillImage" />
        <dc:title></dc:title>
      </cc:Work>
    </rdf:RDF>
  </metadata>
  <g
     inkscape:label="Layer 1"
     inkscape:groupmode="layer"
     id="layer1"
     transform="translate(-262.59942,-150.00007)">
    <path
       style="fill:#2e64ba;fill-opacity:1;stroke-width:0.264583"
       d="m 312.34063,259.63648 c -10.32486,-1.10634 -19.62654,-4.71992 -27.85228,-10.82025 -2.96884,-2.20174 -8.73976,-7.97265 -10.94149,-10.94149 -5.35403,-7.21942 -8.82222,-15.3572 -10.34362,-24.27032 -0.80509,-4.71661 -0.80509,-12.76606 0,-17.48267 1.49064,-8.73292 4.68427,-16.34581 10.00456,-23.84862 2.01287,-2.8386 8.86365,-9.68937 11.70224,-11.70224 7.50282,-5.3203 15.1157,-8.51392 23.84863,-10.00457 2.64988,-0.45231 4.40873,-0.56625 8.74133,-0.56625 4.3326,0 6.09145,0.11394 8.74133,0.56625 8.91313,1.52141 17.0509,4.98959 24.27032,10.34362 2.96885,2.20174 8.73976,7.97265 10.94149,10.94149 5.35403,7.21942 8.82222,15.3572 10.34362,24.27032 0.82674,4.84346 0.81198,12.80021 -0.0327,17.60488 -1.58398,9.01033 -4.99502,17.00043 -10.29738,24.12084 -2.2612,3.0365 -8.01137,8.79169 -10.98233,10.9919 -7.16158,5.30368 -15.22997,8.75029 -23.98855,10.24728 -3.73926,0.63911 -10.77247,0.9123 -14.1552,0.54983 z m 13.62604,-5.26698 c 7.87463,-1.36465 15.34839,-4.59835 21.9326,-9.48966 2.5548,-1.89793 7.65087,-6.99891 9.60822,-9.61749 4.84833,-6.48617 8.05877,-13.87799 9.52583,-21.9326 0.79145,-4.34528 0.79145,-12.58805 0,-16.93333 -1.4654,-8.04549 -4.65555,-15.396 -9.51883,-21.9326 -2.00566,-2.69575 -7.07681,-7.73504 -9.85199,-9.79008 -20.68405,-15.31668 -49.2467,-12.82233 -66.79657,5.83329 -16.6548,17.70415 -18.14863,44.81789 -3.55465,64.51856 2.08336,2.81234 6.82371,7.58078 9.68828,9.74567 7.39361,5.58771 16.02137,9.01937 25.37144,10.0914 3.17535,0.36407 10.09807,0.11296 13.59567,-0.49316 z m -36.38021,-16.67305 c -2.24586,-0.65987 -3.32407,-1.15961 -5.07929,-2.35422 -2.98597,-2.03227 -5.44299,-5.19738 -6.58597,-8.48402 -2.77281,-7.97322 0.38661,-16.41515 7.47462,-19.97206 2.63,-1.31979 4.9376,-1.80759 9.2309,-1.95128 5.37492,-0.1799 10.12424,0.55205 16.12641,2.48537 4.58398,1.47652 4.72907,1.69755 3.84843,5.86259 -0.84904,4.0156 -2.70208,9.513 -4.2822,12.70398 -3.17542,6.41263 -7.51716,10.49989 -12.54466,11.80939 -2.10164,0.54741 -6.15366,0.49805 -8.18824,-0.0998 z m 8.68365,-5.12858 c 3.87603,-1.77451 7.40402,-7.18255 10.04742,-15.40166 0.51482,-1.60073 1.0172,-3.34839 1.1164,-3.88369 l 0.18037,-0.97327 -1.88463,-0.56127 c -6.96943,-2.07558 -14.57512,-2.55639 -18.69791,-1.18204 -3.90502,1.30177 -6.52203,4.42217 -7.25925,8.6556 -0.94866,5.44761 2.71693,11.64839 8.04262,13.60504 2.60676,0.95773 6.02649,0.85309 8.45498,-0.25871 z m 38.8418,5.22866 c -4.9938,-1.39003 -9.42109,-5.6043 -12.48207,-11.8815 -1.54554,-3.16946 -3.40322,-8.71529 -4.2314,-12.6322 -0.88239,-4.17333 -0.714,-4.42721 3.89282,-5.86896 6.36,-1.99043 10.69849,-2.65919 16.08202,-2.479 6.00352,0.20094 9.36245,1.3608 12.60218,4.35162 2.92416,2.6995 4.41861,5.6394 5.00782,9.85147 1.06215,7.59287 -3.91453,15.52105 -11.43023,18.20916 -2.42177,0.86618 -7.13741,1.09065 -9.44114,0.44941 z m 8.11093,-4.98613 c 5.2967,-1.93038 8.95376,-8.13867 8.00465,-13.58886 -0.73454,-4.21801 -3.22087,-7.22206 -7.09082,-8.56733 -4.16928,-1.44932 -11.8156,-1.00603 -18.86633,1.09377 l -1.88463,0.56127 0.18036,0.97327 c 0.31686,1.70986 2.01553,6.71004 3.18235,9.36757 1.36737,3.11427 3.63153,6.587 5.29331,8.11877 2.87567,2.6507 7.29539,3.45769 11.18111,2.04154 z m -30.02421,-29.23029 c -0.8443,-0.70564 -2.71204,-2.48073 -4.15054,-3.94463 -11.32889,-11.52904 -13.36207,-22.57486 -5.58962,-30.3673 3.37513,-3.38381 7.19583,-4.95986 12.04153,-4.96718 4.86532,-0.007 8.61453,1.54028 12.04153,4.97059 2.33551,2.33776 3.52718,4.37436 4.26036,7.28108 0.55125,2.18544 0.3635,6.27223 -0.39988,8.70419 -0.85585,2.72656 -2.77978,6.3135 -4.91058,9.15518 -2.04599,2.72858 -6.71016,7.63544 -8.96467,9.43112 -1.73873,1.38487 -2.40481,1.34439 -4.32813,-0.26305 z m 5.24901,-7.66614 c 4.35212,-4.54709 7.45817,-9.30829 8.57206,-13.13996 1.60448,-5.51919 -1.97412,-11.54564 -7.85884,-13.23452 -7.44998,-2.13809 -15.05196,2.66423 -15.50977,9.79784 -0.20441,3.18522 1.19837,6.73971 4.47975,11.35112 1.58867,2.23262 6.92396,8.08922 7.36916,8.08922 0.1137,0 1.44014,-1.28867 2.94764,-2.8637 z"
       id="path1486" />
  </g>
</svg>
