<?xml version="1.0" encoding="UTF-8" standalone="no"?>
<svg
   xmlns:dc="http://purl.org/dc/elements/1.1/"
   xmlns:cc="http://creativecommons.org/ns#"
   xmlns:rdf="http://www.w3.org/1999/02/22-rdf-syntax-ns#"
   xmlns:svg="http://www.w3.org/2000/svg"
   xmlns="http://www.w3.org/2000/svg"
   xmlns:sodipodi="http://sodipodi.sourceforge.net/DTD/sodipodi-0.dtd"
   xmlns:inkscape="http://www.inkscape.org/namespaces/inkscape"
   width="103.32526mm"
   height="92.955696mm"
   viewBox="0 0 103.32526 92.955696"
   version="1.1"
   id="svg8"
   inkscape:version="1.0.2 (e86c8708, 2021-01-15)"
   sodipodi:docname="matlab.svg">
  <defs
     id="defs2" />
  <sodipodi:namedview
     id="base"
     pagecolor="#ffffff"
     bordercolor="#666666"
     borderopacity="1.0"
     inkscape:pageopacity="0.0"
     inkscape:pageshadow="2"
     inkscape:zoom="0.80591688"
     inkscape:cx="180.46213"
     inkscape:cy="161.2866"
     inkscape:document-units="mm"
     inkscape:current-layer="layer1"
     inkscape:document-rotation="0"
     showgrid="false"
     inkscape:window-width="2560"
     inkscape:window-height="1313"
     inkscape:window-x="0"
     inkscape:window-y="25"
     inkscape:window-maximized="1" />
  <metadata
     id="metadata5">
    <rdf:RDF>
      <cc:Work
         rdf:about="">
        <dc:format>image/svg+xml</dc:format>
        <dc:type
           rdf:resource="http://purl.org/dc/dcmitype/StillImage" />
        <dc:title></dc:title>
      </cc:Work>
    </rdf:RDF>
  </metadata>
  <g
     inkscape:label="Layer 1"
     inkscape:groupmode="layer"
     id="layer1"
     transform="translate(-74.202863,-109.40279)">
    <path
       style="fill:#2e64ba;fill-opacity:1;stroke-width:0.264583"
       d="m 117.79157,202.50791 c -0.29661,-0.25466 -1.31011,-2.36802 -2.25223,-4.69635 -4.25122,-10.50641 -7.21864,-16.12872 -10.03474,-19.01257 l -1.78743,-1.83045 -1.53642,0.13932 c -0.88882,0.0806 -2.11121,0.43059 -2.900125,0.83036 -0.75004,0.38008 -1.67665,0.69105 -2.05914,0.69105 -0.48965,0 -3.91731,-2.31484 -11.58431,-7.82337 -5.98889,-4.30285 -11.15679,-8.11949 -11.48421,-8.48142 -0.71372,-0.78895 -0.76294,-1.69571 -0.13229,-2.43737 0.27688,-0.32562 6.24566,-2.91264 14.84735,-6.43523 l 14.384325,-5.89071 1.59267,-2.09221 c 2.18223,-2.8667 5.33746,-6.00473 7.33726,-7.29726 0.91625,-0.59221 2.95486,-1.57078 4.53023,-2.17461 2.28807,-0.87699 3.22547,-1.40514 4.65943,-2.62517 2.78344,-2.3682 6.81022,-7.77029 11.80609,-15.83838 4.16905,-6.73281 6.35578,-8.75726 9.45327,-8.75169 3.52536,0.006 6.22608,2.6067 9.04554,8.7094 2.2041,4.77076 6.5102,16.34257 11.96968,32.16614 5.23319,15.16774 8.75174,24.19237 13.34693,34.2332 1.41723,3.09676 1.51494,3.78557 0.65845,4.64205 -0.59755,0.59755 -2.13605,0.51576 -3.11486,-0.16558 -1.78709,-1.244 -4.68149,-3.72064 -7.90291,-6.76223 -4.73654,-4.47215 -7.24185,-6.04095 -10.12183,-6.33818 -1.86043,-0.19202 -4.5879,0.63483 -6.66134,2.01942 -1.87337,1.25099 -5.91392,5.3654 -10.41326,10.60361 -6.31983,7.35767 -10.6872,11.19213 -15.21233,13.35615 -3.55915,1.70206 -5.48201,2.07926 -6.4338,1.26208 z m 3.91625,-0.72624 c 5.26351,-1.79024 10.13067,-5.82005 17.73725,-14.68574 8.05337,-9.38644 11.32302,-11.95469 15.70984,-12.33982 3.32496,-0.29191 6.59733,1.44693 11.47724,6.09864 3.72427,3.55011 7.05434,6.39658 8.41888,7.19626 0.87874,0.51497 1.23415,0.59302 1.77098,0.38892 1.26123,-0.47952 1.14479,-1.02441 -1.4867,-6.95712 -4.0959,-9.23422 -7.60497,-18.20701 -11.15285,-28.51813 -3.27048,-9.50491 -5.18818,-14.898 -7.99697,-22.48958 -6.27298,-16.95462 -8.55404,-20.61361 -13.14626,-21.08757 -2.98754,-0.30834 -5.11736,1.61187 -9.33203,8.41362 -5.05393,8.15615 -9.2218,13.72473 -12.06152,16.11507 -1.41266,1.1891 -2.39517,1.73866 -4.66142,2.60729 -1.57931,0.60534 -3.59774,1.57002 -4.48539,2.14374 -1.95311,1.26235 -5.16465,4.45833 -7.33077,7.29524 l -1.59476,2.08862 -14.502845,5.96252 c -9.51,3.90982 -14.59569,6.13186 -14.77256,6.45441 -0.18162,0.33122 -0.18277,0.68277 -0.004,1.07619 0.33914,0.74432 21.92531,16.34953 22.81116,16.49079 0.38105,0.0608 1.3905,-0.23948 2.38125,-0.70827 1.901105,-0.89952 3.536875,-1.05107 4.723215,-0.43759 2.88061,1.48962 6.91039,8.55587 11.85631,20.79011 0.7942,1.96453 1.61817,3.83976 1.83104,4.16718 0.50661,0.77921 1.37227,0.76449 3.81044,-0.0648 z m -2.36594,-3.90397 c -0.26846,-0.61846 -1.11848,-2.67229 -1.88894,-4.56406 -3.72807,-9.15386 -8.06033,-16.38017 -11.02413,-18.38854 -0.75162,-0.50932 -1.3709,-1.05626 -1.37616,-1.21542 -0.005,-0.15917 0.92067,-1.07441 2.05765,-2.03388 5.6023,-4.7277 10.2151,-10.72945 15.80437,-20.5632 4.16603,-7.32971 7.40317,-14.3501 12.9931,-28.17813 3.12113,-7.72086 4.57032,-10.17052 6.26897,-10.59686 3.82358,-0.95966 6.83066,5.46675 18.82474,40.2302 3.68913,10.6925 7.44275,20.58189 10.03712,26.44408 1.16643,2.63564 0.69397,2.56203 -2.45763,-0.38292 -3.40049,-3.17752 -4.83908,-4.25357 -7.26141,-5.43146 -3.82762,-1.86122 -7.45663,-1.82137 -11.43528,0.12556 -3.51702,1.72105 -5.72659,3.84878 -14.73852,14.19271 -4.64396,5.33036 -8.93104,9.00587 -12.50789,10.72361 -2.22566,1.06884 -2.69751,1.01706 -3.29599,-0.36169 z m 5.76825,-1.70805 c 2.99938,-1.99375 6.41744,-5.31701 11.78178,-11.45497 2.48,-2.83765 5.50528,-6.14986 6.72285,-7.36045 8.0206,-7.9747 15.64573,-8.11691 23.8721,-0.44522 3.75202,3.49902 3.60202,3.58476 1.68763,-0.96466 -2.55135,-6.06311 -5.79472,-14.71245 -8.96429,-23.90571 -8.94556,-25.94638 -12.9534,-35.75351 -15.61322,-38.20524 -0.64762,-0.59696 -1.35315,-1.08538 -1.56783,-1.08538 -1.8653,0 -3.22969,2.12484 -6.28601,9.78958 -10.28878,25.80255 -19.064,40.76016 -28.84881,49.1736 l -2.30811,1.98462 0.80165,0.48752 c 3.31593,2.01653 7.49342,8.9927 12.03549,20.09857 l 1.80272,4.40786 1.33818,-0.52631 c 0.73601,-0.28947 2.33164,-1.18668 3.54587,-1.99381 z m 6.25899,-10.13205 c 0.26339,-0.29104 0.53842,-0.52917 0.61118,-0.52917 0.0728,0 -0.0832,0.23813 -0.3466,0.52917 -0.26339,0.29104 -0.53842,0.52917 -0.61118,0.52917 -0.0728,0 0.0832,-0.23813 0.3466,-0.52917 z m 1.85208,-2.11667 c 0.26339,-0.29104 0.53842,-0.52916 0.61118,-0.52916 0.0728,0 -0.0832,0.23812 -0.3466,0.52916 -0.26339,0.29104 -0.53842,0.52917 -0.61118,0.52917 -0.0728,0 0.0832,-0.23813 0.3466,-0.52917 z m 1.71979,-1.98437 c 0.34178,-0.3638 0.68094,-0.66146 0.7537,-0.66146 0.0728,0 -0.14734,0.29766 -0.48912,0.66146 -0.34177,0.3638 -0.68093,0.66146 -0.7537,0.66146 -0.0728,0 0.14735,-0.29766 0.48912,-0.66146 z m 1.85208,-2.11667 c 0.49366,-0.50932 0.95709,-0.92604 1.02985,-0.92604 0.0728,0 -0.27161,0.41672 -0.76526,0.92604 -0.49366,0.50932 -0.95709,0.92604 -1.02985,0.92604 -0.0728,0 0.27161,-0.41672 0.76526,-0.92604 z m 3.57188,-3.79765 c 1.45521,-1.49732 3.12208,-3.09229 3.70417,-3.54436 0.58208,-0.45206 0.93927,-0.70468 0.79375,-0.56137 -0.14552,0.14331 -1.8124,1.73827 -3.70417,3.54436 -3.36918,3.21657 -3.38543,3.22806 -0.79375,0.56137 z m -18.91771,1.4488 c 0,-0.0549 0.20836,-0.2633 0.46302,-0.46302 0.41965,-0.32911 0.42901,-0.31975 0.0999,0.0999 -0.34565,0.44073 -0.56292,0.58089 -0.56292,0.36313 z m 2.52096,-2.25962 c 0.73168,-0.81232 1.60146,-1.83413 1.93283,-2.2707 0.41391,-0.54529 0.50935,-0.60207 0.30489,-0.1814 -0.16368,0.33679 -1.03346,1.35861 -1.93283,2.2707 -1.5091,1.53045 -1.53262,1.54444 -0.30489,0.1814 z m 2.77071,-3.7259 c 0.15576,-0.29105 0.34273,-0.52917 0.41549,-0.52917 0.0728,0 0.005,0.23812 -0.15091,0.52917 -0.15576,0.29104 -0.34273,0.52916 -0.41549,0.52916 -0.0728,0 -0.005,-0.23812 0.15091,-0.52916 z m 18.63528,0.0289 c 0.18877,-0.30543 1.20847,-0.92145 1.20847,-0.73006 0,0.0611 -0.31232,0.31581 -0.69404,0.56592 -0.38172,0.25011 -0.61321,0.32398 -0.51443,0.16414 z m 1.47305,-0.95297 c 0,-0.17923 2.1491,-1.24832 2.2688,-1.12863 0.0555,0.0555 -0.43233,0.35988 -1.08398,0.67648 -0.65165,0.3166 -1.18482,0.52006 -1.18482,0.45215 z m -15.58953,-11.13648 c 0.0127,-0.30823 0.0754,-0.37092 0.15985,-0.15986 0.0764,0.191 0.067,0.4192 -0.0209,0.50712 -0.0879,0.0879 -0.15045,-0.0683 -0.13897,-0.34726 z m 0.81006,-2.4915 c 0,-0.21828 0.10232,-0.635 0.22739,-0.92604 0.14333,-0.33354 0.22739,-0.38245 0.22739,-0.13229 0,0.21828 -0.10233,0.635 -0.22739,0.92604 -0.14333,0.33355 -0.22739,0.38245 -0.22739,0.13229 z m 20.35661,-1.74184 c 0.0127,-0.30822 0.0754,-0.37092 0.15985,-0.15985 0.0764,0.191 0.067,0.4192 -0.0209,0.50712 -0.0879,0.0879 -0.15046,-0.0684 -0.13897,-0.34727 z m -19.57917,-1.05833 c 0.0127,-0.30823 0.0754,-0.37092 0.15985,-0.15985 0.0764,0.19099 0.067,0.4192 -0.0209,0.50712 -0.0879,0.0879 -0.15045,-0.0684 -0.13897,-0.34727 z m 19.31459,0 c 0.0127,-0.30823 0.0754,-0.37092 0.15985,-0.15985 0.0764,0.19099 0.067,0.4192 -0.0209,0.50712 -0.0879,0.0879 -0.15045,-0.0684 -0.13896,-0.34727 z m -0.26459,-1.32292 c 0.0127,-0.30822 0.0754,-0.37092 0.15985,-0.15985 0.0764,0.191 0.067,0.4192 -0.0209,0.50712 -0.0879,0.0879 -0.15045,-0.0684 -0.13897,-0.34727 z m -18.52083,-0.52916 c 0.0127,-0.30823 0.0754,-0.37092 0.15985,-0.15986 0.0764,0.191 0.067,0.4192 -0.0209,0.50712 -0.0879,0.0879 -0.15046,-0.0684 -0.13897,-0.34726 z m 18.25625,-0.52917 c 0.0127,-0.30823 0.0754,-0.37092 0.15985,-0.15985 0.0764,0.19099 0.067,0.4192 -0.0209,0.50712 -0.0879,0.0879 -0.15046,-0.0684 -0.13897,-0.34727 z m -17.97536,-0.37483 c 0,-0.21828 0.10232,-0.635 0.22739,-0.92604 0.14333,-0.33354 0.22739,-0.38245 0.22739,-0.13229 0,0.21828 -0.10233,0.635 -0.22739,0.92604 -0.14333,0.33355 -0.22739,0.38245 -0.22739,0.13229 z m 17.73166,-0.79375 c 0,-0.3638 0.0601,-0.51263 0.13346,-0.33073 0.0734,0.18191 0.0734,0.47956 0,0.66146 -0.0734,0.1819 -0.13346,0.0331 -0.13346,-0.33073 z m -17.2025,-1.05833 c 0,-0.21828 0.10233,-0.635 0.22739,-0.92604 0.14333,-0.33355 0.2274,-0.38245 0.2274,-0.13229 0,0.21828 -0.10233,0.635 -0.2274,0.92604 -0.14333,0.33354 -0.22739,0.38245 -0.22739,0.13229 z m 16.91703,-0.15434 c 0.0127,-0.30823 0.0754,-0.37092 0.15985,-0.15985 0.0764,0.19099 0.067,0.4192 -0.0209,0.50712 -0.0879,0.0879 -0.15045,-0.0684 -0.13897,-0.34727 z m -0.40306,-1.58015 c -0.0996,-0.53098 -0.1282,-1.01833 -0.0635,-1.08301 0.0647,-0.0647 0.19909,0.31685 0.2987,0.84783 0.0996,0.53097 0.1282,1.01833 0.0635,1.083 -0.0647,0.0647 -0.19909,-0.31684 -0.2987,-0.84782 z m -16.0011,-0.27193 c 0.0127,-0.30823 0.0754,-0.37092 0.15985,-0.15986 0.0764,0.191 0.067,0.4192 -0.0209,0.50712 -0.0879,0.0879 -0.15045,-0.0683 -0.13896,-0.34726 z m 0.37059,-1.16858 c 0.078,-0.3638 1.1477,-4.70958 2.37709,-9.65729 1.22939,-4.94771 2.66799,-11.07943 3.1969,-13.62604 1.37007,-6.59679 1.49484,-7.01146 2.10961,-7.01146 0.30626,0 0.66284,0.30481 0.8754,0.74831 0.40427,0.84349 5.92516,24.47476 5.80334,24.84024 -0.0431,0.1294 -0.95044,-3.49149 -2.01621,-8.04643 -3.03607,-12.97555 -3.76935,-15.89788 -4.19732,-16.72758 -0.3609,-0.69967 -0.42399,-0.72776 -0.66545,-0.2963 -0.14671,0.26216 -0.7971,2.93171 -1.44531,5.93233 -1.26968,5.87745 -5.50927,23.0021 -5.92604,23.93654 -0.23351,0.52357 -0.24248,0.51618 -0.11201,-0.0923 z m 15.23982,-0.41892 c 0.0127,-0.30823 0.0754,-0.37092 0.15985,-0.15986 0.0764,0.191 0.067,0.4192 -0.0209,0.50712 -0.0879,0.0879 -0.15045,-0.0683 -0.13897,-0.34726 z m -0.53115,-2.11352 c -0.18184,-0.81255 -0.2796,-1.52839 -0.21723,-1.59076 0.0624,-0.0624 0.26217,0.55142 0.44401,1.36397 0.18184,0.81256 0.2796,1.5284 0.21723,1.59076 -0.0624,0.0624 -0.26217,-0.55142 -0.44401,-1.36397 z m -61.534535,24.59128 c -4.94771,-3.57028 -9.03024,-6.63911 -9.07229,-6.81962 -0.0942,-0.40446 -1.19236,0.0805 13.20965,-5.83406 l 12.074855,-4.95887 4.99077,3.74451 c 2.74493,2.05947 5.03043,3.92258 5.0789,4.14024 0.25292,1.13581 -7.70949,9.75334 -11.88255,12.8602 -1.92133,1.43043 -4.993925,3.39522 -5.271205,3.3707 -0.0728,-0.006 -4.18042,-2.93283 -9.12813,-6.5031 z m 14.155215,2.59818 c 1.09141,-0.81338 3.21857,-2.67559 4.72703,-4.13825 2.78037,-2.69596 7.0078,-7.68308 6.86199,-8.09513 -0.0438,-0.12379 -2.21196,-1.82289 -4.81813,-3.77577 l -4.73848,-3.55069 -5.447985,2.2297 c -2.99638,1.22635 -8.55973,3.50086 -12.36299,5.05449 -5.73792,2.34394 -6.84136,2.87762 -6.48229,3.13519 0.238,0.17073 4.23278,3.05064 8.87729,6.3998 l 8.44457,6.08938 1.47731,-0.93493 c 0.81252,-0.51422 2.370285,-1.60043 3.461685,-2.41379 z m 9.06198,-18.58119 c -2.51023,-1.89066 -4.56406,-3.57143 -4.56406,-3.73506 0,-0.46899 2.76493,-3.72693 4.76103,-5.60995 2.19991,-2.07528 3.25604,-2.70381 6.94999,-4.13607 1.64504,-0.63783 3.37685,-1.52392 4.10104,-2.09832 1.50603,-1.19451 4.13683,-3.98044 5.64443,-5.97724 0.60317,-0.79889 1.14892,-1.45252 1.21279,-1.45252 0.0639,0 0.0488,0.10889 -0.0334,0.24198 -0.0823,0.13309 -0.044,0.28192 0.085,0.33073 0.6175,0.23362 -5.5187,13.2851 -9.49573,20.19708 -2.79434,4.85648 -3.34994,5.6908 -3.78428,5.68273 -0.172,-0.003 -2.36655,-1.5527 -4.87678,-3.44336 z m 7.08384,-0.67846 c 2.81044,-4.72037 5.89154,-10.67183 8.0461,-15.54184 0.95549,-2.15971 1.73725,-3.9853 1.73725,-4.05685 0,-0.0715 -0.92274,0.85207 -2.05052,2.05248 -3.02991,3.22503 -4.15591,4.01149 -7.76329,5.42226 -1.88078,0.73554 -3.82336,1.71021 -4.6997,2.35802 -1.49185,1.10282 -3.9052,3.54932 -5.52749,5.6034 l -0.85871,1.08727 4.43058,3.32982 c 2.43682,1.8314 4.45595,3.33299 4.48695,3.33686 0.031,0.004 1.02047,-1.61226 2.19883,-3.59142 z"
       id="path847" />
    <path
       style="fill:#2e64ba;fill-opacity:1;stroke-width:0"
       d="m 447.70385,764.51266 c -0.52632,-0.24017 -1.24159,-0.79857 -1.58951,-1.24089 -0.86554,-1.10036 -3.34831,-6.67994 -8.10919,-18.22402 -16.35498,-39.65716 -28.36586,-62.14383 -38.67402,-72.40521 -4.70621,-4.68485 -8.5804,-6.18054 -14.0642,-5.42971 -3.26128,0.44653 -4.83391,0.9306 -9.63478,2.9656 -4.39679,1.86373 -7.4781,2.76704 -8.53438,2.50193 -3.26513,-0.81949 -62.69576,-43.31351 -81.65063,-58.38172 -3.49087,-2.77508 -4.46332,-3.71576 -4.75505,-4.59971 -0.55397,-1.67855 -0.15632,-2.86868 1.25648,-3.76055 3.92423,-2.47725 23.77124,-10.94851 74.1158,-31.63469 14.41681,-5.92375 28.30292,-11.63753 30.85802,-12.6973 l 4.64564,-1.92685 4.28147,-5.55723 c 9.1108,-11.82559 18.51569,-21.65126 26.59889,-27.78893 3.85475,-2.92697 11.82395,-7.02608 20.00827,-10.29165 10.58488,-4.2234 14.34621,-6.63671 21.58154,-13.84692 6.09184,-6.07068 11.05848,-12.05851 18.65896,-22.4954 3.75455,-5.1557 13.22522,-19.19957 17.36287,-25.74707 9.24377,-14.62749 11.4684,-18.06407 14.07663,-21.74537 10.92739,-15.42307 17.96334,-20.03954 28.05113,-18.40509 13.61266,2.20556 21.80008,13.31294 36.45525,49.45663 8.09481,19.96406 22.5727,59.59987 37.22226,101.90257 7.46807,21.56518 8.73623,25.1885 11.77984,33.65732 10.2586,28.54423 20.42956,54.02939 33.73298,84.52402 8.32592,19.08504 9.52589,22.23767 9.59267,25.20252 0.0427,1.89486 -0.74452,2.83006 -2.97378,3.53278 -1.25227,0.39473 -1.8287,0.42758 -2.81996,0.16066 -4.20285,-1.13171 -15.67776,-10.42566 -33.18472,-26.8775 -17.46566,-16.41303 -27.13999,-22.74245 -37.68999,-24.65868 -2.81046,-0.51047 -8.65112,-0.42715 -11.76488,0.16782 -14.91086,2.84916 -26.28437,12.29191 -55.84561,46.36527 -24.54968,28.29687 -40.4248,42.64192 -56.0068,50.60891 -9.7035,4.9613 -20.10701,7.9801 -22.9812,6.66846 z m 10.81574,-12.94737 c 5.96963,-2.011 15.50873,-7.79835 23.52959,-14.27532 10.31745,-8.33154 18.69563,-16.81572 35.18297,-35.62815 12.94505,-14.7706 18.88413,-21.25281 26.1879,-28.5828 9.32931,-9.36279 14.38136,-13.33194 21.83099,-17.15153 15.9738,-8.19014 29.61156,-8.38133 45.3371,-0.63559 8.25321,4.06518 13.41038,7.96328 26.69087,20.17461 6.79183,6.24504 8.96361,7.98187 10.44593,8.35391 1.92492,0.48312 1.43203,-1.38117 -3.2409,-12.25879 -10.13396,-23.58977 -21.77595,-54.6026 -37.61297,-100.19644 -18.17647,-52.32888 -27.24284,-77.41855 -35.40351,-97.9732 -15.54048,-39.14254 -24.0698,-51.46034 -33.8909,-48.94429 -4.45794,1.14207 -7.79075,4.91208 -12.6457,14.30456 -3.12912,6.05367 -6.18795,13.06101 -13.5792,31.10807 -22.3002,54.44988 -32.97477,77.14253 -50.35331,107.04408 -19.03407,32.75006 -34.76411,52.9304 -55.30743,70.95482 -6.66888,5.85118 -8.6795,7.88228 -8.6795,8.76791 0,0.62611 1.82617,2.27824 5.4454,4.92645 8.57195,6.27211 19.39928,22.3006 30.64872,45.37149 4.37694,8.97645 6.94063,14.77858 12.60996,28.53892 5.33764,12.95528 6.03443,14.51353 6.91314,15.46034 1.35166,1.45639 2.95299,1.63063 5.89085,0.64095 z m -87.52832,-91.75863 c 6.46446,-3.70666 16.07777,-10.36524 21.52227,-14.90724 16.25257,-13.55847 40.48184,-40.41528 40.48184,-44.87188 0,-1.1972 -6.51887,-6.50381 -25.94047,-21.11654 l -12.20601,-9.18375 -20.24533,8.31318 c -64.57948,26.51777 -72.73142,29.90925 -74.73203,31.09104 -1.97998,1.1696 -1.47743,1.66036 11.98852,11.70713 15.23632,11.36761 55.70913,40.48624 56.27299,40.48624 0.11577,0 1.40196,-0.68318 2.85822,-1.51818 z m 70.66935,-71.94344 c 2.1017,-2.21663 9.67746,-14.83198 17.4519,-29.06136 4.36934,-7.99708 17.19101,-33.64827 21.32013,-42.65328 7.86013,-17.14178 10.57911,-24.51 9.32954,-25.28228 -0.20793,-0.1285 -0.20793,-0.38492 0,-0.77343 0.41369,-0.77299 0.39295,-0.93218 -0.12148,-0.93218 -0.23789,0 -2.52146,2.61736 -5.0746,5.81635 -8.03373,10.06598 -17.58839,19.89376 -22.49819,23.1413 -2.88447,1.9079 -7.28509,4.14537 -11.85612,6.02815 -17.38777,7.16195 -19.79027,8.54214 -27.45938,15.77488 -7.63296,7.19866 -16.99583,17.86928 -18.56311,21.15591 l -0.50343,1.05567 1.54856,1.41127 c 6.53431,5.955 33.21545,25.8129 34.6823,25.8129 0.18009,0 0.96483,-0.67226 1.74388,-1.4939 z"
       id="path849"
       transform="scale(0.26458333)" />
    <path
       style="fill:#2e64ba;fill-opacity:1;stroke-width:0"
       d="m 450.82701,741.74567 c -9.83978,-24.0199 -16.5655,-38.708 -23.30785,-50.90133 -9.57644,-17.31867 -17.4092,-27.43491 -25.17872,-32.51907 l -2.88648,-1.88883 5.68086,-4.92042 c 13.20966,-11.4414 22.55847,-21.39484 33.03452,-35.171 22.04804,-28.99349 44.34792,-70.58195 68.0854,-126.97678 1.8793,-4.46479 5.93102,-14.32967 9.00381,-21.92195 7.8096,-19.29602 10.8183,-26.02261 14.2014,-31.75033 3.25977,-5.5189 6.3827,-8.55576 9.45392,-9.19334 2.0086,-0.41699 2.37893,-0.26421 5.60046,2.3104 4.28411,3.42382 7.60598,8.28944 12.7157,18.625 9.97577,20.17822 22.06069,52.07817 47.41844,125.168 13.72798,39.56879 24.49947,68.36782 34.16907,91.35557 3.24439,7.71296 5.42792,13.25802 5.42792,13.78417 0,0.91827 -1.47796,-0.26187 -8.45162,-6.7486 -10.29494,-9.57609 -16.19691,-13.94285 -24.36758,-18.02914 -18.15938,-9.08179 -36.09763,-7.46265 -54.0384,4.8776 -9.37041,6.44528 -16.93533,13.99539 -39.22967,39.15288 -26.99656,30.46358 -37.67314,40.30564 -52.98376,48.84241 -3.18539,1.77608 -9.87292,4.82317 -10.58555,4.82317 -0.0596,0 -1.75247,-4.01328 -3.76187,-8.91841 z m 46.80977,-38.56799 c 1.46564,-1.63016 1.71971,-2.14651 1.05616,-2.14651 -0.51737,0 -3.65642,3.36252 -3.65642,3.91671 0,0.7053 0.96558,0.0479 2.60026,-1.7702 z m 5.9243,-6.83585 c 1.37927,-1.21101 2.41909,-2.65134 2.25957,-3.12989 -0.15594,-0.46785 -2.92654,2.06822 -3.52608,3.22761 -0.58953,1.14002 -0.10021,1.10227 1.26651,-0.0977 z m 6.79316,-7.79644 c 1.82925,-1.82967 2.85658,-3.25574 2.55946,-3.55286 -0.24943,-0.24943 -4.84854,4.319 -4.84854,4.8162 0,0.7187 0.68602,0.34009 2.28908,-1.26334 z m 7.71716,-8.87216 c 2.86656,-2.95413 3.73369,-4.17668 2.47954,-3.49585 -0.83593,0.45379 -6.59187,6.41707 -6.59187,6.82932 0,0.67746 1.03224,-0.15928 4.11233,-3.33347 z m 17.74027,-18.46798 c 6.58852,-6.29316 11.90862,-11.51262 11.82243,-11.59881 -0.44472,-0.44472 -5.91608,4.38734 -13.77524,12.16568 -8.22087,8.13631 -11.20148,11.29694 -10.37321,10.99971 0.19078,-0.0685 5.73749,-5.27342 12.32602,-11.56658 z m -74.90916,8.62667 c 0.71965,-0.78072 1.23036,-1.4976 1.13491,-1.59305 -0.40349,-0.40349 -3.44193,2.2136 -3.13901,2.70372 0.32904,0.5324 0.65722,0.35052 2.0041,-1.11067 z m 13.66514,-13.41793 c 2.18242,-2.5956 3.45526,-4.70552 2.83867,-4.70552 -0.12453,0 -1.33682,1.36102 -2.69398,3.0245 -1.35716,1.66348 -4.03987,4.79401 -5.96157,6.95673 -1.9217,2.16273 -3.49399,4.04485 -3.49399,4.18249 0,0.43844 6.78379,-6.45269 9.31087,-9.4582 z m 5.27562,-7.71321 c 0.89705,-1.4145 1.19539,-2.57602 0.66166,-2.57602 -0.60939,0 -2.21952,2.57674 -2.21952,3.55197 0,0.88555 0.62606,0.49335 1.55786,-0.97595 z m 72.20437,-1.3399 c 1.91893,-1.28142 2.62261,-2.16673 1.72219,-2.16673 -0.95627,0 -4.44731,2.4806 -4.44731,3.16009 0,0.54157 0.93924,0.1992 2.72512,-0.99336 z m 7.35656,-4.32499 c 3.39667,-1.63881 4.45943,-2.32658 4.11984,-2.66617 -0.54547,-0.54547 -8.61782,3.41913 -8.61782,4.2325 0,0.47073 0.99144,0.12548 4.49798,-1.56633 z M 496.83893,602.7975 c -0.13829,-1.63646 -0.87179,-1.74363 -0.87179,-0.12738 0,0.94091 0.12448,1.26667 0.48403,1.26667 0.36819,0 0.46099,-0.27267 0.38776,-1.13929 z m 3.60358,-10.8781 c 0.52068,-1.52811 0.65296,-3.49289 0.23517,-3.49289 -0.47593,0 -1.35817,2.31739 -1.53369,4.02853 -0.15771,1.53756 -0.12564,1.66917 0.31759,1.3033 0.27115,-0.22384 0.71257,-1.05136 0.98093,-1.83894 z m 76.33321,-5.19902 c 0,-0.67556 -0.16747,-1.24495 -0.38776,-1.31838 -0.27327,-0.0911 -0.38775,0.29814 -0.38775,1.31838 0,1.02023 0.11448,1.40946 0.38775,1.31837 0.22029,-0.0734 0.38776,-0.64281 0.38776,-1.31837 z m -73.73825,-3.59157 c 0.0499,-0.41353 -0.10692,-1.02213 -0.34845,-1.35245 -0.42877,-0.58637 -0.44441,-0.584 -0.66157,0.10023 -0.28974,0.91287 0.0607,2.2859 0.543,2.1276 0.20697,-0.0679 0.41713,-0.46185 0.46702,-0.87538 z m 72.91266,0.20661 c 0.14795,-0.76315 -0.2131,-2.04364 -0.57625,-2.04364 -0.16736,0 -0.30429,0.6398 -0.30429,1.42177 0,0.99948 0.11517,1.38343 0.38776,1.29267 0.21326,-0.071 0.43501,-0.37287 0.49278,-0.6708 z M 574.92692,578.79 c 0.26948,-0.43601 -0.11801,-2.46151 -0.4709,-2.46151 -0.41817,0 -0.70696,1.19122 -0.49425,2.03872 0.19896,0.79274 0.62199,0.97805 0.96515,0.42279 z m -70.02264,-2.9804 c -0.13829,-1.63645 -0.87179,-1.74362 -0.87179,-0.12738 0,0.94091 0.12448,1.26668 0.48403,1.26668 0.36819,0 0.46099,-0.27267 0.38776,-1.1393 z m 69.10006,-1.46856 c 0.2107,-0.83952 -0.35919,-2.16008 -0.81155,-1.88051 -0.33425,0.20658 -0.40314,2.10502 -0.0878,2.42033 0.39433,0.39433 0.71292,0.20311 0.89939,-0.53982 z M 506.057,571.85877 c 0.74129,-1.77415 1.14054,-3.96692 0.7867,-4.32076 -0.41341,-0.41341 -1.50557,2.02682 -1.76974,3.95418 -0.23811,1.73719 0.32295,1.94641 0.98304,0.36658 z m 66.84115,-2.64671 c 0,-1.54737 -0.39706,-2.28862 -0.74301,-1.38708 -0.25168,0.65586 -0.23895,2.45485 0.0192,2.713 0.50322,0.50322 0.72381,0.0991 0.72381,-1.32592 z m -0.9807,-3.86857 c 0.14796,-0.76315 -0.2131,-2.04364 -0.57624,-2.04364 -0.16736,0 -0.3043,0.6398 -0.3043,1.42177 0,0.99948 0.11518,1.38343 0.38776,1.29267 0.21327,-0.071 0.43502,-0.37287 0.49278,-0.6708 z m -63.72053,-0.83493 c 0.75375,-1.8838 1.0148,-4.12418 0.459,-3.93921 -0.92195,0.30684 -2.09352,5.21214 -1.24485,5.21214 0.15208,0 0.50572,-0.57282 0.78585,-1.27293 z m 62.58759,-5.46202 c -0.43428,-2.97704 -0.92317,-4.74266 -1.3132,-4.74266 -0.44837,0 -0.34516,3.00813 0.17958,5.23417 0.55776,2.36611 0.72345,2.68722 1.16086,2.24981 0.22682,-0.22682 0.21858,-1.05623 -0.0272,-2.74132 z m -60.91694,-1.22887 c -0.13829,-1.63645 -0.87179,-1.74362 -0.87179,-0.12738 0,0.94091 0.12448,1.26668 0.48403,1.26668 0.36819,0 0.46099,-0.27267 0.38776,-1.1393 z m 1.13311,-4.19609 c 1.96189,-4.90323 16.11713,-62.05212 22.80468,-92.0692 3.73531,-16.76594 5.07887,-21.7144 5.89567,-21.7144 0.52329,0 1.79261,2.5861 2.74485,5.59231 1.36603,4.31259 5.44982,20.85758 11.67449,47.29776 6.10434,25.92909 9.92941,41.49842 10.3888,42.28595 0.26512,0.45448 0.30599,0.43247 0.3142,-0.16916 0.045,-3.29676 -19.92504,-88.52924 -21.89739,-93.45865 -0.64521,-1.61252 -2.05023,-2.79041 -3.32119,-2.78428 -1.27717,0.006 -1.55073,0.20882 -2.29666,1.70138 -0.87767,1.75614 -1.86593,5.7666 -4.73936,19.23275 -4.2162,19.75901 -7.26073,32.73246 -16.30653,69.48608 -3.31731,13.47844 -6.10262,24.82033 -6.18957,25.20421 -0.26955,1.19002 0.37899,0.7674 0.92801,-0.60475 z m 57.92723,-1.10138 c 0.18406,-0.74126 -0.14763,-1.97735 -0.52774,-1.96674 -0.35811,0.01 -0.59203,1.42174 -0.34308,2.07049 0.23288,0.60689 0.70843,0.55023 0.87082,-0.10375 z m -0.99305,-4.70335 c 0,-2.22635 -1.97875,-10.26408 -2.52684,-10.26408 -0.64065,0 0.0381,4.65208 1.32381,9.07352 0.63435,2.18144 1.20303,2.74423 1.20303,1.19056 z"
       id="path851"
       transform="scale(0.26458333)" />
  </g>
</svg>
