<?xml version="1.0" encoding="UTF-8" standalone="no"?>
<svg
   xmlns:dc="http://purl.org/dc/elements/1.1/"
   xmlns:cc="http://creativecommons.org/ns#"
   xmlns:rdf="http://www.w3.org/1999/02/22-rdf-syntax-ns#"
   xmlns:svg="http://www.w3.org/2000/svg"
   xmlns="http://www.w3.org/2000/svg"
   xmlns:sodipodi="http://sodipodi.sourceforge.net/DTD/sodipodi-0.dtd"
   xmlns:inkscape="http://www.inkscape.org/namespaces/inkscape"
   width="268.25369mm"
   height="252.51782mm"
   viewBox="0 0 268.25369 252.51782"
   version="1.1"
   id="svg8"
   inkscape:version="1.0.2 (e86c8708, 2021-01-15)"
   sodipodi:docname="paraview.svg">
  <defs
     id="defs2" />
  <sodipodi:namedview
     id="base"
     pagecolor="#ffffff"
     bordercolor="#666666"
     borderopacity="1.0"
     inkscape:pageopacity="0.0"
     inkscape:pageshadow="2"
     inkscape:zoom="0.35"
     inkscape:cx="377.49299"
     inkscape:cy="507.17186"
     inkscape:document-units="mm"
     inkscape:current-layer="layer1"
     inkscape:document-rotation="0"
     showgrid="false"
     inkscape:window-width="2560"
     inkscape:window-height="1313"
     inkscape:window-x="0"
     inkscape:window-y="25"
     inkscape:window-maximized="1" />
  <metadata
     id="metadata5">
    <rdf:RDF>
      <cc:Work
         rdf:about="">
        <dc:format>image/svg+xml</dc:format>
        <dc:type
           rdf:resource="http://purl.org/dc/dcmitype/StillImage" />
        <dc:title></dc:title>
      </cc:Work>
    </rdf:RDF>
  </metadata>
  <g
     inkscape:label="Layer 1"
     inkscape:groupmode="layer"
     id="layer1"
     transform="translate(-7.466885,-13.977446)">
    <path
       style="fill:#2e64ba;fill-opacity:1;stroke:none;stroke-width:0;stroke-miterlimit:4;stroke-dasharray:none"
       d="M 8.3241383,263.28246 C 8.7956277,261.51543 23.534967,204.79065 41.078226,137.22741 L 72.975058,14.38515 100.58786,14.181299 128.20067,13.977447 96.267006,137.02356 C 78.703494,204.69891 63.953497,261.51543 63.489231,263.28246 l -0.844115,3.2128 H 35.056001 7.466885 Z"
       id="path893" />
    <path
       style="fill:#2e64ba;fill-opacity:1;stroke:none;stroke-width:0;stroke-miterlimit:4;stroke-dasharray:none"
       d="m 82.08412,263.28246 c 0.47149,-1.76702 15.210824,-58.4918 32.75408,-126.05505 l 31.89683,-122.842261 27.6128,-0.203851 27.61281,-0.203852 -31.93366,123.046124 c -17.56352,67.67534 -32.31351,124.49187 -32.77778,126.25889 l -0.84411,3.21281 H 108.81597 81.226863 Z"
       id="path893-4" />
    <path
       style="fill:#2e64ba;fill-opacity:1;stroke:none;stroke-width:0;stroke-miterlimit:4;stroke-dasharray:none"
       d="m 155.84406,263.28246 c 0.47149,-1.76702 15.21083,-58.4918 32.75409,-126.05505 l 31.89683,-122.842261 27.6128,-0.203851 27.61281,-0.203852 -31.93366,123.046124 c -17.56352,67.67534 -32.31351,124.49187 -32.77778,126.25889 l -0.84411,3.21281 H 182.57592 154.9868 Z"
       id="path893-5" />
  </g>
</svg>
